# xmcd CD database file
#
# Track frame offsets:
#	150
#	14041
#	34173
#	49109
#	61572
#	80910
#	91548
#	111367
#	128762
#	148121
#	163656
#
# Disc length: 2383 seconds
#
# Revision: 0
# Processed by: cddbd v1.5.2PL0 Copyright (c) Steve Scherf et al.
# Submitted via: CDex 1.51
#
DISCID=90094d0b
DTITLE=Chris Smither - Hundred Dollar Valentine
DYEAR=2012
DGENRE=Blues
TTITLE0=Hundred Dollar Valentine
TTITLE1=On The Edge
TTITLE2=What It Might HaveBeen
TTITLE3=What They Say
TTITLE4=All We Need To Know
TTITLE5=Make Room For Me
TTITLE6=I Feel The Same
TTITLE7=Place In Line
TTITLE8=Feeling By Degrees
TTITLE9=Every Mother`s Son
TTITLE10=No Name
EXTD=YEAR: 2012
EXTT0=
EXTT1=
EXTT2=
EXTT3=
EXTT4=
EXTT5=
EXTT6=
EXTT7=
EXTT8=
EXTT9=
EXTT10=
PLAYORDER=
